<?xml version="1.0" encoding="UTF-8" standalone="no"?>
<svg
   xmlns:dc="http://purl.org/dc/elements/1.1/"
   xmlns:cc="http://creativecommons.org/ns#"
   xmlns:rdf="http://www.w3.org/1999/02/22-rdf-syntax-ns#"
   xmlns:svg="http://www.w3.org/2000/svg"
   xmlns="http://www.w3.org/2000/svg"
   xmlns:sodipodi="http://sodipodi.sourceforge.net/DTD/sodipodi-0.dtd"
   xmlns:inkscape="http://www.inkscape.org/namespaces/inkscape"
   version="1.1"
   id="svg2"
   xml:space="preserve"
   width="1060.8933"
   height="397"
   viewBox="0 0 1060.8933 397"
   sodipodi:docname="Logo Skerm_wit groen.eps"><metadata
     id="metadata8"><rdf:RDF><cc:Work
         rdf:about=""><dc:format>image/svg+xml</dc:format><dc:type
           rdf:resource="http://purl.org/dc/dcmitype/StillImage" /></cc:Work></rdf:RDF></metadata><defs
     id="defs6" /><sodipodi:namedview
     pagecolor="#ffffff"
     bordercolor="#666666"
     borderopacity="1"
     objecttolerance="10"
     gridtolerance="10"
     guidetolerance="10"
     inkscape:pageopacity="0"
     inkscape:pageshadow="2"
     inkscape:window-width="640"
     inkscape:window-height="480"
     id="namedview4" /><g
     id="g10"
     inkscape:groupmode="layer"
     inkscape:label="ink_ext_XXXXXX"
     transform="matrix(1.3333333,0,0,-1.3333333,0,397)"><g
       id="g12"
       transform="scale(0.1)"><path
         d="m 5.65234,1161.91 c 11.26956,16.92 31.00396,56.39 39.46486,70.48 14.1133,22.56 45.1172,28.2 76.1168,8.46 0,0 121.235,-98.67 265.008,-98.67 115.582,0 183.238,59.21 183.238,135.33 0,98.66 -84.578,143.77 -248.085,225.53 C 171.969,1576.35 0,1675 0,1866.72 c 0,118.41 95.8477,293.19 358.051,293.19 146.621,0 259.355,-50.74 312.933,-87.39 25.383,-16.93 33.848,-56.39 16.922,-87.39 l -22.578,-45.12 c -16.883,-31 -56.383,-39.46 -81.73,-25.36 0,0 -121.235,67.65 -225.547,67.65 -126.852,0 -160.699,-64.85 -160.699,-112.77 0,-93.02 93.043,-135.31 208.625,-191.7 194.543,-93.04 369.32,-180.43 369.32,-383.42 0,-163.5 -157.891,-318.558 -389.055,-318.558 -188.89,0 -304.4686,78.938 -366.5115,126.858 -14.07816,11.27 -22.53909,39.47 -14.07816,59.2"
         style="fill:#ffffff;fill-opacity:1;fill-rule:nonzero;stroke:none"
         id="path14" /><path
         d="m 1361.59,2923.91 c 0,28.2 25.38,53.58 53.57,53.58 h 87.39 c 28.2,0 53.58,-25.38 53.58,-53.58 V 1703.2 l 479.25,394.68 c 22.58,19.75 45.11,33.85 67.65,33.85 h 152.24 c 47.96,0 45.12,-53.58 25.39,-70.48 l -535.64,-428.54 623.02,-558.19 c 22.58,-19.73 19.73,-70.48 -28.19,-70.48 h -155.04 c -25.39,0 -45.12,14.1 -56.39,22.56 l -572.29,544.09 V 1057.6 c 0,-28.2 -25.38,-53.56 -53.58,-53.56 h -87.39 c -28.19,0 -53.57,25.36 -53.57,53.56 v 1866.31"
         style="fill:#ffffff;fill-opacity:1;fill-rule:nonzero;stroke:none"
         id="path16" /><path
         d="m 4451.23,2078.15 c 0,28.19 25.39,53.58 53.58,53.58 h 53.54 c 22.58,0 42.31,-14.1 47.93,-39.48 l 22.57,-81.75 c 0,0 104.31,149.41 338.28,149.41 84.58,0 225.55,-14.1 197.36,-93.03 l -33.81,-95.85 c -14.12,-36.65 -39.5,-36.65 -67.66,-25.38 -25.38,11.29 -67.69,22.56 -109.96,22.56 -214.28,0 -307.28,-157.87 -307.28,-157.87 V 1057.6 c 0,-28.2 -25.39,-53.56 -53.58,-53.56 h -87.39 c -28.19,0 -53.58,25.36 -53.58,53.56 v 1020.55"
         style="fill:#ffffff;fill-opacity:1;fill-rule:nonzero;stroke:none"
         id="path18" /><path
         d="m 5674.74,2078.15 c 0,28.19 25.38,53.58 53.57,53.58 h 53.54 c 25.39,0 39.5,-11.29 45.12,-33.85 l 25.39,-87.38 c 0,0 132.5,149.41 366.47,149.41 166.35,0 287.59,-64.84 360.86,-183.24 14.11,11.27 194.54,183.24 420.09,183.24 327.01,0 436.98,-214.26 436.98,-507.45 V 1057.6 c 0,-28.2 -25.39,-53.56 -53.58,-53.56 h -90.24 c -28.15,0 -53.54,25.36 -53.54,53.56 v 594.86 c 0,211.43 -90.23,318.57 -253.74,318.57 -183.23,0 -304.47,-121.23 -343.93,-157.89 8.46,-47.92 14.08,-101.48 14.08,-160.68 V 1057.6 c 0,-28.2 -25.35,-53.56 -53.54,-53.56 h -90.24 c -28.19,0 -53.54,25.36 -53.54,53.56 v 594.86 c 0,214.26 -95.85,318.57 -267.85,318.57 -200.16,0 -321.36,-160.69 -321.36,-160.69 V 1057.6 c 0,-28.2 -25.39,-53.56 -53.58,-53.56 h -87.39 c -28.19,0 -53.57,25.36 -53.57,53.56 v 1020.55"
         style="fill:#ffffff;fill-opacity:1;fill-rule:nonzero;stroke:none"
         id="path20" /><path
         d="m 7857.08,1203.37 c 55.94,0 99.64,-43.71 99.64,-99.66 0,-54.2 -43.7,-99.67 -99.64,-99.67 -54.22,0 -99.67,45.47 -99.67,99.67 0,55.95 45.45,99.66 99.67,99.66"
         style="fill:#66caa4;fill-opacity:1;fill-rule:nonzero;stroke:none"
         id="path22" /><path
         d="m 3037.4,1469.04 c -66.37,177.57 -10.15,373.39 147.64,464.49 157.76,91.08 355.45,41.85 476.04,-104.41 z m 793.27,457.99 c -172.98,229.2 -489.17,311.68 -738.66,167.64 -271.01,-156.47 -350.57,-514.92 -191.29,-790.8 162.1,-280.77 512.31,-391.1 783.31,-234.63 115.55,66.71 195.83,170.3 237.77,288.8 7.75,21.91 -6.08,45.58 -29.05,49.12 l -111.87,17.26 c -17.15,2.65 -34.57,-6.36 -40.82,-22.55 -27.75,-71.84 -77.54,-133.44 -147.65,-173.92 -155.99,-90.06 -352.22,-41.31 -475.32,104.83 l 622.15,359.2 140.97,81.38 c 16.6,9.59 22.94,30.27 14.88,47.67 -6.86,14.81 -14.31,29.47 -22.62,43.87 -12.65,21.91 -26.88,42.37 -41.8,62.13"
         style="fill:#ffffff;fill-opacity:1;fill-rule:nonzero;stroke:none"
         id="path24" /><path
         d="m 2407.62,355.789 c -1.02,5.102 1.03,6.633 5.62,6.633 h 12.25 c 3.06,0 5.61,-2.551 6.12,-5.613 l 85.76,-299.1293 c 0.51,0 1.02,0 1.02,0 l 89.84,305.2613 c 1.03,3.047 4.6,4.59 7.66,4.59 h 1.02 c 3.06,0 6.64,-1.543 7.66,-4.59 l 90.35,-305.2613 c 0,0 0.51,0 1.02,0 l 85.25,299.1293 c 0.51,3.062 3.06,5.613 6.12,5.613 h 12.25 c 4.6,0 6.64,-1.531 5.62,-6.633 L 2724.11,3.58203 C 2723.6,1.53125 2721.55,0 2719.52,0 h -5.62 c -2.55,0 -4.09,1.01953 -5.11,3.58203 L 2616.91,314.441 h -1.02 L 2524.01,3.58203 C 2522.99,1.01953 2521.46,0 2518.9,0 h -5.61 c -2.04,0 -4.09,1.53125 -4.6,3.58203 L 2407.62,355.789"
         style="fill:#66caa4;fill-opacity:1;fill-rule:nonzero;stroke:none"
         id="path26" /><path
         d="m 2948.76,355.789 c 0,3.582 3.06,6.633 6.63,6.633 h 204.7 c 3.57,0 6.63,-3.051 6.63,-6.633 v -8.68 c 0,-3.57 -3.06,-6.64 -6.63,-6.64 H 2973.26 V 199.59 h 161.81 c 3.58,0 6.64,-3.059 6.64,-6.641 v -8.668 c 0,-3.582 -3.06,-6.64 -6.64,-6.64 H 2973.26 V 26.5391 h 186.83 c 3.57,0 6.63,-3.0586 6.63,-6.6289 v -8.1719 c 0,-3.56642 -3.06,-6.63674 -6.63,-6.63674 h -204.7 c -3.57,0 -6.63,3.07032 -6.63,6.63674 V 355.789"
         style="fill:#66caa4;fill-opacity:1;fill-rule:nonzero;stroke:none"
         id="path28" /><path
         d="m 3424.02,197.031 c 47.98,0 76.05,30.117 76.05,71.981 0,44.41 -30.62,70.949 -79.63,70.949 h -91.37 v -142.93 z m 3.06,-170.4919 c 49.51,0 84.23,31.6601 84.23,76.0699 0,45.422 -38.8,72.481 -87.29,72.481 h -95.46 V 26.5391 Z m -122,329.2499 c 0,3.582 3.06,6.633 6.64,6.633 h 108.72 c 62.79,0 105.67,-36.242 105.67,-92.391 0,-40.332 -24.5,-69.929 -56.15,-82.691 36.24,-9.699 67.38,-36.25 67.38,-85.25 0,-57.1681 -45.94,-96.98844 -112.3,-96.98844 h -113.32 c -3.58,0 -6.64,3.07032 -6.64,6.63674 V 355.789"
         style="fill:#66caa4;fill-opacity:1;fill-rule:nonzero;stroke:none"
         id="path30" /><path
         d="m 3946.26,27.0586 c 89.32,0 158.23,67.8828 158.23,157.2224 0,88.301 -68.91,156.188 -158.23,156.188 h -86.27 V 27.0586 Z M 3835.99,355.789 c 0,3.582 3.07,6.633 6.13,6.633 h 108.21 c 99.03,0 179.69,-80.133 179.69,-178.141 0,-99.5505 -80.66,-179.17944 -179.69,-179.17944 h -108.21 c -3.06,0 -6.13,3.07032 -6.13,6.63674 V 355.789"
         style="fill:#66caa4;fill-opacity:1;fill-rule:nonzero;stroke:none"
         id="path32" /><path
         d="m 4263.79,355.789 c 0,3.582 3.06,6.633 6.64,6.633 h 204.7 c 3.57,0 6.63,-3.051 6.63,-6.633 v -8.68 c 0,-3.57 -3.06,-6.64 -6.63,-6.64 H 4288.29 V 199.59 h 161.82 c 3.57,0 6.64,-3.059 6.64,-6.641 v -8.668 c 0,-3.582 -3.07,-6.64 -6.64,-6.64 H 4288.29 V 26.5391 h 186.84 c 3.57,0 6.63,-3.0586 6.63,-6.6289 v -8.1719 c 0,-3.56642 -3.06,-6.63674 -6.63,-6.63674 h -204.7 c -3.58,0 -6.64,3.07032 -6.64,6.63674 V 355.789"
         style="fill:#66caa4;fill-opacity:1;fill-rule:nonzero;stroke:none"
         id="path34" /><path
         d="m 4569.07,355.789 c -2.04,4.082 -0.51,6.633 4.08,6.633 h 13.79 c 3.06,0 5.1,-2.043 5.61,-3.57 L 4730.38,41.8594 c 0,0 0.5,0 1.02,0 l 139.35,316.9926 c 0.51,1.527 2.55,3.57 5.62,3.57 h 13.26 c 4.6,0 6.64,-3.051 4.6,-7.141 L 4737.52,4.60156 C 4736.5,2.03906 4734.45,0 4731.4,0 h -2.55 c -3.07,0 -5.11,3.05859 -5.62,4.60156 L 4569.07,355.789"
         style="fill:#66caa4;fill-opacity:1;fill-rule:nonzero;stroke:none"
         id="path36" /><path
         d="m 5003.49,355.789 c 0,3.582 3.07,6.633 6.64,6.633 h 204.7 c 3.57,0 6.63,-3.051 6.63,-6.633 v -8.68 c 0,-3.57 -3.06,-6.64 -6.63,-6.64 H 5027.99 V 199.59 h 161.82 c 3.57,0 6.64,-3.059 6.64,-6.641 v -8.668 c 0,-3.582 -3.07,-6.64 -6.64,-6.64 H 5027.99 V 26.5391 h 186.84 c 3.57,0 6.63,-3.0586 6.63,-6.6289 v -8.1719 c 0,-3.56642 -3.06,-6.63674 -6.63,-6.63674 h -204.7 c -3.57,0 -6.64,3.07032 -6.64,6.63674 V 355.789"
         style="fill:#66caa4;fill-opacity:1;fill-rule:nonzero;stroke:none"
         id="path38" /><path
         d="m 5359.82,355.789 c 0,3.582 3.07,6.633 6.64,6.633 h 11.24 c 3.05,0 6.12,-3.051 6.12,-6.633 V 26.5391 h 162.84 c 6.12,0 6.63,-3.0586 6.63,-6.6289 v -9.1914 c 0,-3.57036 -3.06,-5.61724 -6.63,-5.61724 h -180.2 c -3.57,0 -6.64,3.07032 -6.64,6.63674 V 355.789"
         style="fill:#66caa4;fill-opacity:1;fill-rule:nonzero;stroke:none"
         id="path40" /><path
         d="m 5813.14,22.4609 c 89.34,0 161.82,71.461 161.82,160.8011 0,89.32 -72.48,161.808 -161.82,161.808 -89.33,0 -161.3,-72.488 -161.3,-161.808 0,-89.3401 71.97,-160.8011 161.3,-160.8011 z m 0,345.0701 c 102.6,0 184.28,-82.191 184.28,-184.269 C 5997.42,80.6484 5915.74,0 5813.14,0 c -102.08,0 -183.76,80.6484 -183.76,183.262 0,102.078 81.68,184.269 183.76,184.269"
         style="fill:#66caa4;fill-opacity:1;fill-rule:nonzero;stroke:none"
         id="path42" /><path
         d="m 6246.55,155.691 c 50.03,0 92.4,41.34 92.4,92.911 0,50.019 -42.37,89.839 -92.9,89.839 h -90.86 v -182.75 z m -115.36,200.098 c 0,3.582 3.07,6.633 6.64,6.633 h 109.75 c 63.29,0 115.36,-51.551 115.36,-114.344 0,-63.797 -52.07,-115.867 -114.85,-115.867 h -92.9 V 11.7383 c 0,-3.56642 -3.07,-6.63674 -8.17,-6.63674 h -9.19 c -3.57,0 -6.64,3.07032 -6.64,6.63674 V 355.789"
         style="fill:#66caa4;fill-opacity:1;fill-rule:nonzero;stroke:none"
         id="path44" /><path
         d="m 6527.34,363.961 c 0.5,2.027 2.55,3.57 4.59,3.57 h 5.62 c 2.55,0 4.08,-1.019 5.1,-3.57 L 6647.8,50.5391 c 0.52,0 0.52,0 1.03,0 L 6754.5,363.961 c 1.02,2.551 2.55,3.57 5.1,3.57 h 5.61 c 2.05,0 4.08,-1.543 4.6,-3.57 l 72.48,-352.2227 c 1.02,-5.10939 -1.02,-6.63674 -5.62,-6.63674 h -12.24 c -3.07,0 -5.62,2.5586 -6.13,5.61724 l -57.68,299.1332 c -0.52,0 -1.02,0 -1.02,0 L 6656.49,4.07813 C 6655.47,1.01953 6652.4,0 6649.34,0 h -2.04 c -2.55,0 -5.62,0.511719 -6.64,4.07813 L 6537.55,309.852 c 0,0 -0.52,0 -1.02,0 L 6478.84,10.7188 c -0.51,-3.05864 -3.06,-5.61724 -6.12,-5.61724 h -12.25 c -4.59,0 -6.64,1.52735 -5.62,6.63674 l 72.49,352.2227"
         style="fill:#66caa4;fill-opacity:1;fill-rule:nonzero;stroke:none"
         id="path46" /><path
         d="m 6973.01,355.789 c 0,3.582 3.06,6.633 6.64,6.633 h 204.69 c 3.58,0 6.63,-3.051 6.63,-6.633 v -8.68 c 0,-3.57 -3.05,-6.64 -6.63,-6.64 H 6997.51 V 199.59 h 161.82 c 3.57,0 6.64,-3.059 6.64,-6.641 v -8.668 c 0,-3.582 -3.07,-6.64 -6.64,-6.64 H 6997.51 V 26.5391 h 186.83 c 3.58,0 6.63,-3.0586 6.63,-6.6289 v -8.1719 c 0,-3.56642 -3.05,-6.63674 -6.63,-6.63674 h -204.69 c -3.58,0 -6.64,3.07032 -6.64,6.63674 V 355.789"
         style="fill:#66caa4;fill-opacity:1;fill-rule:nonzero;stroke:none"
         id="path48" /><path
         d="m 7329.33,360.891 c 0,4.078 3.57,6.64 7.66,6.64 h 8.68 L 7590.68,48.4883 c 0.52,0 0.52,0 0.52,0 V 355.789 c 0,3.582 3.06,6.633 6.63,6.633 h 10.21 c 3.57,0 6.64,-3.051 6.64,-6.633 V 6.62891 C 7614.68,2.03906 7610.59,0 7606.51,0 h -6.64 c -0.5,0 -4.59,1.53125 -247.06,322.102 h -0.51 V 11.7383 c 0,-3.56642 -3.06,-6.63674 -6.63,-6.63674 h -9.7 c -3.57,0 -6.64,3.07032 -6.64,6.63674 V 360.891"
         style="fill:#66caa4;fill-opacity:1;fill-rule:nonzero;stroke:none"
         id="path50" /><path
         d="m 7828.09,340.469 h -97.5 c -5.1,0 -6.63,3.07 -6.63,7.66 v 7.66 c 0,4.082 3.06,6.633 6.63,6.633 h 219.5 c 4.08,0 6.63,-3.051 6.63,-6.633 v -8.68 c 0,-3.57 -2.55,-6.64 -6.63,-6.64 h -98.01 V 11.7383 c 0,-3.56642 -3.06,-6.63674 -8.17,-6.63674 h -9.19 c -3.57,0 -6.63,3.07032 -6.63,6.63674 V 340.469"
         style="fill:#66caa4;fill-opacity:1;fill-rule:nonzero;stroke:none"
         id="path52" /></g></g></svg>
